<svg width="24" height="24" fill="none" xmlns="http://www.w3.org/2000/svg"><path d="M9 18c-.55 0-1.02-.196-1.412-.587A1.926 1.926 0 0 1 7 16V4c0-.55.196-1.02.588-1.413A1.926 1.926 0 0 1 9 2h9c.55 0 1.02.196 1.413.587.39.393.587.863.587 1.413v12c0 .55-.196 1.02-.587 1.413A1.926 1.926 0 0 1 18 18H9Zm0-2h9V4H9v12Zm-4 6c-.55 0-1.02-.196-1.413-.587A1.926 1.926 0 0 1 3 20V7a.97.97 0 0 1 .288-.713A.968.968 0 0 1 4 6c.283 0 .52.096.713.287.191.192.287.43.287.713v13h10a.97.97 0 0 1 .713.288c.191.191.287.429.287.712s-.096.52-.287.712A.968.968 0 0 1 15 22H5Z" fill="#D8E3F8"/></svg>