<svg width="32" height="32" fill="none" xmlns="http://www.w3.org/2000/svg"><path d="M25.351 23.056a.23.23 0 0 0-.116-.2 5.982 5.982 0 0 1-1.982-1.976.243.243 0 0 0-.21-.118.243.243 0 0 0-.212.118 5.98 5.98 0 0 1-1.982 1.975.232.232 0 0 0 0 .402 5.981 5.981 0 0 1 1.982 1.976.243.243 0 0 0 .211.118c.09 0 .167-.046.21-.118a5.982 5.982 0 0 1 1.983-1.976.232.232 0 0 0 .116-.2ZM6.35 18.996c1.281-2.211 4.479-2.211 5.76 0l2.897 5c1.289 2.224-.33 4.985-2.88 4.985H6.332c-2.55 0-4.17-2.76-2.88-4.986l2.897-4.999Zm.545 6.336h4.67L9.23 21.303l-2.335 4.03ZM4.756 4.738a5.968 5.968 0 0 1 8.421 0 5.934 5.934 0 0 1 0 8.41 5.968 5.968 0 0 1-8.42 0 5.933 5.933 0 0 1 0-8.41Zm5.846 2.586a2.32 2.32 0 0 0-3.27 0 2.284 2.284 0 0 0 0 3.24 2.32 2.32 0 0 0 3.27 0 2.284 2.284 0 0 0 0-3.24Zm10.431 3.615h4.018v-3.99h-4.018v3.99ZM29 23.056c0 1.42-.764 2.658-1.892 3.333a2.346 2.346 0 0 0-.73.728A3.891 3.891 0 0 1 23.041 29a3.892 3.892 0 0 1-3.335-1.883 2.346 2.346 0 0 0-.732-.728 3.882 3.882 0 0 1 0-6.665c.273-.163.569-.458.732-.728a3.892 3.892 0 0 1 3.335-1.883c1.416 0 2.656.757 3.335 1.883.163.27.459.565.731.728A3.882 3.882 0 0 1 29 23.056Zm-.3-12.09a3.625 3.625 0 0 1-3.629 3.622h-4.058a3.625 3.625 0 0 1-3.629-3.622V6.922a3.625 3.625 0 0 1 3.63-3.622h4.058A3.625 3.625 0 0 1 28.7 6.922v4.044Z" fill="#C3C6CF"/></svg>