<svg width="24" height="24" fill="none" xmlns="http://www.w3.org/2000/svg"><path d="M18.585 12.732a.976.976 0 0 0-.975-.976H6.39a.976.976 0 0 0-.975.976v6.39a.976.976 0 0 0 .975.927h11.22a.976.976 0 0 0 .975-.976v-6.341Zm0-5.854a.976.976 0 0 0-.927-.974l-.048-.002H6.39a.976.976 0 0 0-.975.976v2a.976.976 0 0 0 .975.927h11.22a.976.976 0 0 0 .975-.976V6.878Zm1.952 1.951c0 .722-.267 1.416-.746 1.951a2.93 2.93 0 0 1 .746 1.952v6.341A2.927 2.927 0 0 1 17.61 22H6.39a2.927 2.927 0 0 1-2.927-2.927v-6.341c0-.722.267-1.416.746-1.951a2.927 2.927 0 0 1-.746-1.952V6.878A2.927 2.927 0 0 1 6.39 3.951h11.22a2.927 2.927 0 0 1 2.927 2.927V8.83Z" fill="#D8E3F8"/><path d="M7.122 7.854a1.22 1.22 0 1 1 2.439 0 1.22 1.22 0 0 1-2.439 0Zm7.317 0a1.22 1.22 0 1 1 2.439 0 1.22 1.22 0 0 1-2.439 0ZM2.377 2.206a.975.975 0 0 1 1.369.17l1.707 2.196a.976.976 0 1 1-1.54 1.198L2.206 3.575a.975.975 0 0 1 .17-1.37Zm17.877.17a.976.976 0 0 1 1.54 1.199L20.087 5.77a.975.975 0 1 1-1.54-1.198l1.707-2.195ZM10.98 12.77a3.292 3.292 0 0 1 4.313 3.132v.065a3.293 3.293 0 0 1-5.959 1.87.732.732 0 0 1 1.185-.859 1.829 1.829 0 0 0 3.31-1.075v-.001l-.001-.072a1.829 1.829 0 0 0-3.309-1.003.732.732 0 0 1-1.185-.86 3.293 3.293 0 0 1 1.647-1.197Z" fill="#D8E3F8"/></svg>