<svg width="24" height="24" fill="none" xmlns="http://www.w3.org/2000/svg"><path d="M19.177 16.945H4.823v1.274a.92.92 0 0 0 .911.927h12.532a.92.92 0 0 0 .911-.927v-1.274ZM4.823 15.091h14.354v-8.11H4.823v8.11ZM21 18.22c0 1.535-1.224 2.78-2.734 2.78H5.734C4.224 21 3 19.755 3 18.22V6.75c0-.43.168-.843.467-1.147.3-.304.705-.475 1.128-.475h14.81c.423 0 .829.17 1.128.475.299.304.467.717.467 1.147v11.47Z" fill="#D8E3F8"/><path d="M7.33 9.762c0-.64.51-1.158 1.138-1.158.63 0 1.14.518 1.14 1.158 0 .64-.51 1.159-1.14 1.159a1.15 1.15 0 0 1-1.139-1.159Zm7.062 0c0-.64.51-1.158 1.14-1.158.629 0 1.139.518 1.139 1.158 0 .64-.51 1.159-1.14 1.159a1.15 1.15 0 0 1-1.139-1.159Zm.228-3.707c0-.27-.06-.541-.18-.8a2.207 2.207 0 0 0-.541-.713 2.687 2.687 0 0 0-.857-.505 3.03 3.03 0 0 0-1.04-.183H12c-.36 0-.715.063-1.042.183-.328.12-.618.293-.857.505-.238.211-.42.455-.54.714a1.88 1.88 0 0 0-.181.799.92.92 0 0 1-.912.927.92.92 0 0 1-.911-.927c0-.552.123-1.095.357-1.595.234-.5.573-.946.99-1.316a4.5 4.5 0 0 1 1.435-.85A4.828 4.828 0 0 1 12 2c.53 0 1.057.086 1.559.257l.1.035.002.001c.53.194 1.018.482 1.435.851.417.37.756.815.99 1.316.234.5.357 1.043.357 1.595a.92.92 0 0 1-.911.927.92.92 0 0 1-.912-.927Z" fill="#D8E3F8"/></svg>