<svg width="32" height="32" fill="none" xmlns="http://www.w3.org/2000/svg"><path d="M27.672 16a1.334 1.334 0 0 0-.678-1.16l-.002-.002h-.001l-3.996-2.273-3.285 3.345 3.388 3.464 3.968-2.257A1.334 1.334 0 0 0 27.672 16ZM8.888 26.927A1.331 1.331 0 0 0 10 26.825l.008-.004L20.7 20.738l-2.86-2.925-8.953 9.114ZM8 24.027l7.976-8.122L8 7.748v16.278ZM9.332 4.995c-.09 0-.18.01-.267.027l8.78 8.98 2.752-2.802-10.59-6.022L10 5.175a1.333 1.333 0 0 0-.668-.179ZM30.338 16a4 4 0 0 1-2.032 3.483l-.305.172h-.003l-16.672 9.484a4 4 0 0 1-5.993-3.474V6.342a4 4 0 0 1 5.993-3.48V2.86l16.98 9.656.114.068A4 4 0 0 1 30.338 16Z" fill="#C3C6CF"/></svg>