<svg width="24" height="24" fill="none" xmlns="http://www.w3.org/2000/svg"><path d="M21.024 2a.976.976 0 0 1 .824 1.499l-3.284 5.17a7.179 7.179 0 0 1 2.888 3.382 7.195 7.195 0 0 1-1.56 7.842 7.195 7.195 0 0 1-4.998 2.106l-.09.001H2.977a.976.976 0 0 1-.824-1.499l3.284-5.17A7.195 7.195 0 0 1 8.808 2.01.983.983 0 0 1 8.95 2h12.073Zm-9.688 18.049h3.469l.13-.002a5.243 5.243 0 0 0 2.582-9.73l-6.18 9.732Zm-6.585 0h4.274l6.618-10.42a5.243 5.243 0 0 0-.838-.068h-3.393L4.751 20.049ZM9.063 3.95a5.244 5.244 0 0 0-2.58 9.732l6.18-9.732h-3.6Zm3.588 3.659h2.154c.662 0 1.318.091 1.95.269l2.494-3.928h-4.274L12.65 7.61Z" fill="#D8E3F8"/></svg>