<svg width="24" height="24" fill="none" xmlns="http://www.w3.org/2000/svg"><path d="M4 20c-.55 0-1.02-.196-1.413-.587A1.926 1.926 0 0 1 2 18V6c0-.55.196-1.02.587-1.412A1.926 1.926 0 0 1 4 4h16c.55 0 1.02.196 1.413.588.391.391.587.862.587 1.412v12c0 .55-.196 1.02-.587 1.413A1.926 1.926 0 0 1 20 20H4Zm0-2h16V8H4v10Zm4.675-5-1.9-1.9a.916.916 0 0 1-.288-.7c.009-.267.113-.5.313-.7.2-.183.433-.28.7-.287.267-.009.5.087.7.287l2.6 2.6c.2.2.3.433.3.7 0 .267-.1.5-.3.7l-2.6 2.6a.977.977 0 0 1-.687.287.93.93 0 0 1-.713-.287.948.948 0 0 1-.275-.7.95.95 0 0 1 .275-.7L8.675 13ZM13 17a.968.968 0 0 1-.713-.288A.968.968 0 0 1 12 16c0-.283.096-.52.287-.713A.968.968 0 0 1 13 15h4a.97.97 0 0 1 .712.287c.192.192.288.43.288.713s-.096.52-.288.712A.968.968 0 0 1 17 17h-4Z" fill="#D8E3F8"/></svg>