<svg width="32" height="32" fill="none" xmlns="http://www.w3.org/2000/svg"><path d="M2.667 16c0-1.845.35-3.578 1.05-5.2.7-1.622 1.65-3.033 2.85-4.233 1.2-1.2 2.61-2.15 4.233-2.85 1.622-.7 3.355-1.05 5.2-1.05 2.822 0 5.339.777 7.55 2.333 2.211 1.556 3.817 3.567 4.817 6.033.155.378.16.756.016 1.134a1.25 1.25 0 0 1-1.8.667 1.473 1.473 0 0 1-.683-.8A10.67 10.67 0 0 0 23.6 8.5c-1-1.022-2.2-1.811-3.6-2.367v.534a2.57 2.57 0 0 1-.783 1.883 2.568 2.568 0 0 1-1.884.783h-2.666V12c0 .378-.128.694-.384.95a1.29 1.29 0 0 1-.95.383h-2.666V16H12c.378 0 .694.128.95.383.256.256.383.573.383.95V20H12l-6.4-6.4c-.067.4-.128.8-.183 1.2-.056.4-.084.8-.084 1.2 0 2.711.895 5.078 2.684 7.1 1.789 2.022 4.039 3.189 6.75 3.5.355.044.65.194.883.45.233.255.35.572.35.95s-.128.694-.383.95a1.05 1.05 0 0 1-.917.317C11.3 28.933 8.444 27.51 6.133 25c-2.31-2.511-3.466-5.511-3.466-9ZM27.2 27.733 23.867 24.4a8.32 8.32 0 0 1-1.5.667 5.34 5.34 0 0 1-1.7.266c-1.667 0-3.084-.583-4.25-1.75-1.167-1.166-1.75-2.583-1.75-4.25 0-1.666.583-3.083 1.75-4.25 1.166-1.166 2.583-1.75 4.25-1.75 1.666 0 3.083.584 4.25 1.75 1.166 1.167 1.75 2.584 1.75 4.25 0 .6-.09 1.167-.267 1.7a8.314 8.314 0 0 1-.667 1.5l3.334 3.334c.244.244.366.555.366.933s-.122.689-.366.933c-.245.245-.556.367-.934.367-.377 0-.689-.122-.933-.367Zm-6.533-5.066c.933 0 1.722-.323 2.366-.967.645-.645.967-1.433.967-2.367 0-.933-.322-1.722-.967-2.366C22.39 16.322 21.6 16 20.667 16c-.934 0-1.723.322-2.367.967-.645.644-.967 1.433-.967 2.366 0 .934.323 1.723.967 2.367.644.644 1.433.967 2.367.967Z" fill="#C3C6CF"/></svg>